<svg width="256" height="219" viewBox="0 0 256 219" fill="none" xmlns="http://www.w3.org/2000/svg">
<path d="M20.1714 86.557C12.8797 96.7285 6.29052 106.765 4.55315 119.4C3.3213 128.359 3.07388 137.159 4.3282 146.138C7.27831 167.254 19.5552 182.228 37.2035 193.699C80.6153 221.917 144.671 224.738 181.174 183.673C195.391 167.678 201.468 142.762 197.049 121.971C192.03 98.3577 172.987 80.1663 151.866 69.9747C125.428 57.2181 95.3034 54.6756 67.1545 63.5474C54.1611 67.6426 42.5539 74.0447 32.1582 82.8613C24.9802 88.9489 18.6139 95.7541 13.8405 103.911C8.70169 112.691 7.08416 121.335 5.1316 131.098" stroke="#161B33" stroke-width="7" stroke-linecap="round"/>
<path d="M100.444 109.058C102.28 112.838 102.957 116.867 104.514 120.759" stroke="#161B33" stroke-width="7" stroke-linecap="round"/>
<path d="M152.843 105.497C155.299 110.553 156.449 116.209 156.913 121.776" stroke="#161B33" stroke-width="7" stroke-linecap="round"/>
<path d="M130.67 165.045C140.593 167.379 153.221 168.736 160.209 160.002" stroke="#161B33" stroke-width="7" stroke-linecap="round"/>
<path d="M52.2893 96.7518C54.6858 104.016 54.4239 112.022 50.8488 118.973C48.8873 122.787 45.6624 126.15 43.166 129.617C40.7007 133.041 37.884 136.237 37.884 140.688C37.884 144.549 39.7657 149.565 42.9792 151.945C52.0026 158.629 62.6198 154.599 64.7739 143.702C66.4852 135.045 63.361 125.659 60.2389 117.719C57.8981 111.767 55.1704 106.123 55.1704 99.6329" stroke="#161B33" stroke-width="7" stroke-linecap="round"/>
<path d="M102.517 16.9269C102.517 19.5649 102.352 22.0988 103.328 24.6133C104.523 27.6937 107.26 30.6027 110.738 30.9051C119.608 31.6764 119.553 20.8052 118.863 14.5918" stroke="#161B33" stroke-width="7" stroke-linecap="round"/>
<path d="M132.581 9.62964C134.221 13.1067 134.24 17.6049 134.349 21.4025C134.443 24.6885 134.916 27.9402 134.916 31.2294" stroke="#161B33" stroke-width="7" stroke-linecap="round"/>
<path d="M134.333 22.4727C136.765 22.3376 139.264 21.1431 141.695 20.7214C144.523 20.2308 147.292 19.9626 150.095 19.262" stroke="#161B33" stroke-width="7" stroke-linecap="round"/>
<path d="M152.722 7.8783C154.585 14.8934 153.068 22.1621 154.473 29.1862" stroke="#161B33" stroke-width="7" stroke-linecap="round"/>
<path d="M171.986 18.9701C174.612 18.4699 177.239 18.0034 179.867 17.5106" stroke="#161B33" stroke-width="7" stroke-linecap="round"/>
<path d="M204.386 9.62962C199.688 7.28066 194.973 11.895 193.31 16.0512C190.892 22.0967 196.436 26.3438 201.84 27.2727C208.072 28.3438 214.525 26.0444 215.77 19.1971C216.41 15.6746 215.314 12.4416 212.98 9.72691C210.563 6.91482 207 6.29312 203.51 6.12695" stroke="#161B33" stroke-width="7" stroke-linecap="round"/>
<path d="M232.991 3.5C232.811 11.5876 230.072 19.2984 230.072 27.4349" stroke="#161B33" stroke-width="7" stroke-linecap="round"/>
<path d="M229.78 18.0944C232.239 17.1839 235.046 17.1558 237.629 16.862C240.842 16.4965 244.068 16.2528 247.294 16.0512" stroke="#161B33" stroke-width="7" stroke-linecap="round"/>
<path d="M250.796 4.95947C252.039 5.55595 251.999 6.77433 251.948 8.00809C251.838 10.6467 251.677 13.3051 251.315 15.9215C250.664 20.6333 250.076 25.4226 249.045 30.0619" stroke="#161B33" stroke-width="7" stroke-linecap="round"/>
</svg>
